<?xml version="1.0" encoding="utf-8"?>
<!-- Generator: Adobe Illustrator 24.0.0, SVG Export Plug-In . SVG Version: 6.00 Build 0)  -->
<svg version="1.1" id="Layer_1" xmlns="http://www.w3.org/2000/svg" xmlns:xlink="http://www.w3.org/1999/xlink" x="0px" y="0px"
	 viewBox="0 0 86.4 86.4" style="enable-background:new 0 0 86.4 86.4;" xml:space="preserve">
<path d="M58.1,13.5C48.5,8.6,37.6,7.7,27.4,11S8.9,21.4,4,30.9c-3.9,7.7-4.6,16.5-1.9,24.7s8.3,14.9,16,18.8
	c3.8,1.9,7.8,2.9,11.8,2.9c8.4,0,16.5-4,21.4-11.2c0.2,0.6,2.4,3.1,7.4,4.7c3.4,1.1,8.2,1.9,14.4,0.7c7.6-1.4,12.1-6.1,12.2-12.6
	C85.6,39.7,75.2,22.3,58.1,13.5z M71.6,26.5c4.2,4.9,1.4,10.3-0.6,13.1c-4.3,6-12.5,10.4-16.2,8.7c-0.1-0.4-0.2-0.9-0.3-1.3
	c-1.3-4-3.7-7.4-6.8-9.9c3.8-2.8,5.9-10.9,5.2-17.1c-0.4-3.3-1.5-5.9-3.2-7.7c2.6,0.7,5.2,1.7,7.6,2.9
	C62.8,18.1,67.6,21.9,71.6,26.5z M30.9,60c-1-0.3-1.5-1.2-1.4-2.6c0.1-2.1,1.5-4,2.1-4.1h0.1c0.1,0,0.3,0,0.4,0c0,1.6,0.9,3.6,2,4.9
	c0.5,0.6,1,1,1.6,1.3C34.2,60,32.6,60.2,30.9,60z M23.6,55.2c-0.5-0.9-0.2-1.8,0.8-2.6c1.4-1.3,3.5-1.7,4-1.4c0.3,0.4,0.6,0.8,1,1.1
	c0.1,0,0.1,0.1,0.2,0.1c-1.1,1.2-1.8,3.1-1.9,4.8c0,0.6,0,1.2,0.1,1.7C26,57.9,24.6,56.7,23.6,55.2z M31.6,35.6
	c2.8-0.9,5.6-1,8.4-0.2c1.9,0.5,2.1,2.3,2.1,3.7c-0.2,2.5-1.6,4.8-2.6,5.3c-0.4-0.3-0.8-0.6-1.3-0.8c-1.1-0.6-2.4-0.9-3.6-0.9
	c0.1-1.8-0.8-4.1-2.1-5.6c-0.5-0.5-1-1-1.5-1.3C31.2,35.8,31.4,35.7,31.6,35.6z M50.8,43.8c1,1.9-0.2,3.5-1.3,4.5
	c-2.2,1.9-5.3,2.6-6.4,2.1c-0.1-0.5-0.2-1.1-0.4-1.6c-0.4-1.2-1-2.3-1.8-3.2c1.6-1.3,2.9-4.1,3-6.5c0.1-0.8,0-1.5-0.2-2.2
	C46.7,38.6,49.2,41,50.8,43.8z M38.4,57.7c-0.9,0.6-1.9,0.2-2.8-0.9c-0.7-0.8-1.2-1.8-1.4-2.6c1.2,0.8,2.8,1.4,4.3,1.5
	c0.2,0,0.3,0,0.5,0c0.4,0,0.8-0.1,1.2-0.1C39.7,56.4,39.2,57.2,38.4,57.7z M38.6,53.7c-1.1-0.1-2.1-0.5-2.9-0.9
	c1.3-0.3,2.8-1,3.8-1.9c0.6-0.5,1-1.1,1.3-1.6c0,0.1,0,0.1,0.1,0.2c0.3,0.9,0.5,1.9,0.3,2.8C41,53.4,40.1,53.8,38.6,53.7z
	 M29.8,47.7c0.2-0.2,0.9-0.2,1.5,0.4c0.9,0.9,1.5,2.4,1.2,2.9c-0.4,0.7-1.3,0.4-1.9-0.1C29.8,50.1,29.1,48.6,29.8,47.7z M39.1,46.6
	c0.5,1,0.3,1.9-0.8,2.9c-0.7,0.7-1.6,1.1-2.4,1.3c0.6-1.1,1.1-2.4,1.1-3.6c0.1-0.8-0.1-1.6-0.3-2.2c0.2,0.1,0.5,0.2,0.7,0.3
	C38,45.6,38.9,46.2,39.1,46.6z M32.9,44.9c0.3-0.1,0.5-0.1,0.8-0.2c1,0.3,1.4,1.1,1.3,2.4c-0.1,0.9-0.4,1.8-0.7,2.5
	c-0.3-0.9-0.7-1.9-1.4-2.6c-0.5-0.6-1.1-1-1.6-1.2C31.8,45.4,32.3,45.1,32.9,44.9z M27.8,37.5c1.1-0.6,2.2-0.3,3.2,0.9
	c1.3,1.5,1.9,3.7,1.6,4.5c-0.1,0-0.2,0.1-0.3,0.1c-1.2,0.4-2.3,1.1-3.1,2.1c-1.1-1.1-3.1-1.9-4.8-2c-0.6,0-1.1,0-1.5,0.1
	C23,43.1,23,43,23,42.9C24.1,40.7,25.8,38.8,27.8,37.5z M21.7,46.4L21.7,46.4c0.3-1,1.2-1.5,2.5-1.4c1.8,0.1,3.4,1.1,3.8,1.8l0,0
	c-0.3,0.7-0.4,1.5-0.4,2.3c-1.5,0.1-3.4,0.8-4.6,1.9c-0.4,0.3-0.7,0.7-1,1.1C21.5,50.3,21.4,48.4,21.7,46.4z M42.2,55.9
	c0.6-1.1,0.9-2.2,1-3.4c0.3,0,0.6,0.1,0.9,0.1c2.2,0,4.9-1.2,6.7-2.8c0.8-0.7,1.3-1.4,1.7-2.2l0,0c1.2,3.7,1.2,7.5,0.2,11.2
	c0,0,0,0,0,0.1c-0.7,2.6-3.1,2.9-4.9,2.8c-3.2-0.2-6.5-2.1-7.1-3.6C41.3,57.4,41.8,56.7,42.2,55.9z M28,12.9
	c3.9-1.2,7.8-1.9,11.8-1.9c1,0,3.1,0.2,3.2,0.2c6,0.6,7.5,5.9,7.9,9.1c0.7,6.3-1.8,14-5,15.6c-0.6-0.4-1.2-0.8-1.9-1.1
	c-1.1-0.6-2.3-1-3.5-1.3l0,0l0,0c-2.6-0.7-5.2-0.7-7.9-0.2c0.4-4-2.8-10-6.7-13.3c-2.2-1.9-4.5-2.9-6.7-3
	C21.9,15.3,24.9,13.9,28,12.9z M5.8,31.8c2.6-5.2,5.9-9.1,8.9-11.4c4-3,7.9-0.6,9.9,1.1c4.4,3.7,6.8,9.8,5.9,12.4
	c-1.3,0.5-2.5,1.1-3.7,1.8l0,0l0,0c-1.9,1.3-3.5,2.9-4.8,4.8c-2.3-2.8-7.9-4.7-12.4-4.5C7,36.1,5,36.8,3.4,38.1
	C3.9,36,4.7,33.9,5.8,31.8z M2.5,43.4c0.9-4.3,4.8-5.1,7.1-5.3c5-0.2,10.3,2.2,11.3,4.4c-1.2,2.5-1.6,5.1-1.2,7.7
	c-3.3-0.5-8.2,1.7-11.1,4.7c-1.5,1.5-2.4,3.1-2.8,4.8c-0.8-1.5-1.4-3.1-2-4.7C2.7,51.2,1.8,46.7,2.5,43.4z M8.1,63
	c-1.2-2.5,0.1-4.9,1.9-6.7c3.2-3.3,8.3-4.9,10.1-3.9c0.4,1.3,1,2.6,1.7,3.7l0,0l0,0c0.6,0.9,1.3,1.7,2.2,2.5
	c-2.5,1.8-4.4,6.4-4.5,10.1c-0.1,1.8,0.3,3.4,1,4.6C16,71.7,9.8,66.6,8.1,63z M25.3,74.8c-3.3-0.7-3.8-3.7-3.8-6
	c0.1-4,2.3-8.1,4.2-8.9c0.4,0.3,0.9,0.6,1.4,0.8c1.6,0.8,3.4,1.2,5.1,1.2c-0.5,2.7,1,6.7,3.2,9.2c1,1.2,2.2,2,3.3,2.4
	C34.8,75.4,29.6,75.8,25.3,74.8z M42.7,71.5c-2.5,1.4-4.6-0.1-5.9-1.6c-2.3-2.6-3.3-6.7-2.6-8.1c1.8-0.3,3.5-1.1,5-2.3
	c1.4,2.2,5.2,3.9,8.4,4.1c0.2,0,0.5,0,0.7,0c0.9,0,1.7-0.1,2.5-0.4C48.8,66.7,46.2,69.6,42.7,71.5z M72.7,69.6
	c-6.3,1.2-13.7-0.1-17.6-2.7c-1.2-0.8-2-1.6-2.5-2.6c0,0,0-0.1-0.1-0.1c0.2-0.4,0.4-0.7,0.6-1.1c2-3.9,2.7-8.3,2.1-12.6
	c0.4,0.1,0.9,0.1,1.3,0.1c4.9,0,11.9-4.1,16.1-9.9c2.2-3,3.2-6,3.1-8.8c5.1,7.9,7.8,17.2,7.6,27C83.1,66.5,76.6,68.9,72.7,69.6z
	 M77.4,40.5c-0.5-0.2-1.1,0.1-1.2,0.6c-0.2,0.5,0.1,1.1,0.6,1.2c0.1,0,0.1,0,0.2,0c0.4,0,0.9-0.2,1-0.7
	C78.2,41.2,77.9,40.6,77.4,40.5z M59.5,52.1c-0.5,0.1-0.9,0.5-0.9,1.1c0.1,0.5,0.4,0.8,0.9,0.9c0.1,0,0.1,0,0.2,0
	c0.5-0.1,0.9-0.5,0.9-1.1C60.6,52.4,60.1,52,59.5,52.1z M66.3,50.2c-0.5,0.2-0.7,0.8-0.5,1.3c0.2,0.3,0.5,0.6,0.8,0.6
	c0.2,0,0.3,0,0.5-0.1c0.5-0.2,0.7-0.8,0.5-1.3S66.8,50,66.3,50.2z M72.3,46.6c-0.4,0.3-0.5,1-0.1,1.4c0.2,0.2,0.4,0.3,0.7,0.3
	c0.2,0,0.5,0,0.7-0.2c0.4-0.3,0.4-1,0.1-1.4C73.3,46.3,72.7,46.2,72.3,46.6z M52.2,36.7c-0.3,0.4-0.3,1,0.1,1.4
	c0.2,0.1,0.4,0.2,0.6,0.2c0.3,0,0.6-0.1,0.8-0.4c0.3-0.4,0.3-1-0.1-1.4C53.2,36.2,52.6,36.3,52.2,36.7z M57,25.1
	c-0.1,0.5,0.3,1,0.9,1.1l0,0c0.5,0,1-0.4,1-0.9s-0.3-1-0.9-1.1C57.6,24.1,57.1,24.5,57,25.1z M56.9,19.6c0.2,0,0.3,0,0.5-0.1
	c0.5-0.2,0.7-0.8,0.4-1.3l0,0c-0.2-0.5-0.8-0.7-1.3-0.4c-0.5,0.2-0.7,0.8-0.4,1.3C56.3,19.4,56.6,19.6,56.9,19.6z M56,32.5
	c0.1,0,0.2,0.1,0.3,0.1c0.4,0,0.8-0.2,1-0.6c0.2-0.5,0-1.1-0.5-1.3s-1.1,0-1.3,0.5l0,0C55.2,31.7,55.5,32.3,56,32.5z M27.7,16.9
	C27.8,17,28,17,28.1,17c0.3,0,0.7-0.2,0.9-0.5c0.3-0.5,0.1-1.1-0.4-1.3c-0.5-0.3-1.1-0.1-1.3,0.4C27,16,27.2,16.6,27.7,16.9z
	 M35.3,28.6c0.1,0,0.1,0,0.2,0c0.5-0.1,0.9-0.6,0.8-1.1c-0.1-0.5-0.6-0.9-1.1-0.8c-0.5,0.1-0.9,0.6-0.8,1.1
	C34.5,28.3,34.9,28.6,35.3,28.6z M32.9,22c0.2,0,0.4,0,0.5-0.1c0.5-0.3,0.6-0.9,0.4-1.3c-0.3-0.5-0.9-0.6-1.3-0.4
	c-0.5,0.3-0.6,0.9-0.4,1.3C32.3,21.9,32.6,22,32.9,22z M9.3,33.3c0.1,0,0.2,0,0.3,0c0.5-0.1,0.8-0.7,0.7-1.2
	c-0.1-0.5-0.7-0.8-1.2-0.7l0,0c-0.5,0.1-0.8,0.7-0.7,1.2C8.5,33,8.9,33.3,9.3,33.3z M21.3,36.2c0.3,0,0.6-0.2,0.8-0.4
	c0.3-0.4,0.2-1-0.2-1.4c-0.5-0.3-1.1-0.2-1.4,0.2s-0.2,1,0.2,1.4C20.9,36.1,21.1,36.2,21.3,36.2z M15.3,33.4c0.1,0,0.2,0,0.3,0
	c0.4,0,0.8-0.3,0.9-0.7c0.1-0.5-0.2-1.1-0.7-1.2c-0.5-0.1-1,0.2-1.2,0.7C14.5,32.8,14.8,33.3,15.3,33.4z M13.7,48c0.1,0,0.2,0,0.2,0
	c0.5-0.1,0.8-0.7,0.7-1.2c-0.1-0.5-0.7-0.8-1.2-0.7s-0.8,0.7-0.7,1.2C12.9,47.7,13.3,48,13.7,48z M7.1,51.6c0.2,0,0.5-0.1,0.7-0.3
	c0.4-0.4,0.4-1,0-1.4s-1-0.4-1.4,0s-0.4,1,0,1.4C6.6,51.5,6.9,51.6,7.1,51.6z M15.9,64.5c-0.5,0-1,0.4-1,1c0,0.5,0.4,1,0.9,1l0,0
	c0.5,0,1-0.4,1-0.9C16.9,65,16.5,64.5,15.9,64.5z M18.7,58.1c-0.5-0.3-1.1-0.2-1.3,0.3c-0.3,0.4-0.2,1,0.3,1.3
	c0.2,0.1,0.4,0.1,0.5,0.1c0.3,0,0.6-0.1,0.8-0.4C19.2,59,19.1,58.4,18.7,58.1z"/>
</svg>
